<?xml version="1.0" encoding="utf-8"?>
<!-- Generator: Adobe Illustrator 27.1.0, SVG Export Plug-In . SVG Version: 6.00 Build 0)  -->
<svg version="1.1" id="Layer_1" xmlns="http://www.w3.org/2000/svg" xmlns:xlink="http://www.w3.org/1999/xlink" x="0px" y="0px"
	 viewBox="0 0 800 800" style="enable-background:new 0 0 800 800;" xml:space="preserve">
<style type="text/css">
	.st0{fill:#EE513B;}
	.st1{fill:#FFFFFF;}
</style>
<path class="st0" d="M16.7,440.4c-22.3-22.3-22.3-58.5,0-80.8L359.6,16.7c22.3-22.3,58.5-22.3,80.8,0l342.9,342.9
	c22.3,22.3,22.3,58.5,0,80.8L440.4,783.3c-22.3,22.3-58.5,22.3-80.8,0L16.7,440.4z"/>
<path class="st1" d="M290,87.5l-34.7,34.7l89.7,89.7c-3.6,7.8-5.7,16.5-5.7,25.6c0,26,16.3,48.2,39.3,56.8v219.4
	c-23,8.7-39.3,30.8-39.3,56.8c0,33.5,27.2,60.7,60.7,60.7s60.7-27.2,60.7-60.7c0-23.6-13.4-44-33-54.1V294.6l85.7,85.7
	c-3.5,7.6-5.4,16.1-5.4,25c0,33.5,27.2,60.7,60.7,60.7c33.5,0,60.7-27.2,60.7-60.7c0-33.5-27.2-60.7-60.7-60.7
	c-6.5,0-12.8,1-18.7,2.9L458,255.5c1.8-5.7,2.7-11.7,2.7-18c0-33.5-27.2-60.7-60.7-60.7c-6.3,0-12.3,0.9-18,2.7L290,87.5z"/>
</svg>
