<?xml version="1.0" encoding="utf-8"?><!-- https://www.svgrepo.com/ -->
<svg xmlns="http://www.w3.org/2000/svg" viewBox="0 0 800 800">
  <path fill="#FFFFFF" d="M400,0c221,0,400,179,400,400c0,171.9-109.7,324.5-272.5,379.5c-20,4-27.5-8.5-27.5-19c0-13.5,0.5-56.5,0.5-110 c0-37.5-12.5-61.5-27-74c89-10,182.5-44,182.5-197.5c0-44-15.5-79.5-41-107.5c4-10,18-51-4-106c0,0-33.5-11-110,41 c-32-9-66-13.5-100-13.5c-34,0-68,4.5-100,13.5c-76.5-51.5-110-41-110-41c-22,55-8,96-4,106c-25.5,28-41,64-41,107.5 c0,153,93,187.5,182,197.5c-11.5,10-22,27.5-25.5,53.5c-23,10.5-80.5,27.5-116.5-33c-7.5-12-30-41.5-61.5-41 c-33.5,0.5-13.5,19,0.5,26.5c17,9.5,36.5,45,41,56.5c8,22.5,34,65.5,134.5,47c0,33.5,0.5,65,0.5,74.5c0,10.5-7.5,22.5-27.5,19 C110.1,725.1-0.1,572.2,0,400C0,179,179,0,400,0z" />
</svg>