<?xml version="1.0" encoding="utf-8"?>
<!-- Generator: Adobe Illustrator 27.1.0, SVG Export Plug-In . SVG Version: 6.00 Build 0)  -->
<svg version="1.1" id="Layer_1" xmlns="http://www.w3.org/2000/svg" xmlns:xlink="http://www.w3.org/1999/xlink" x="0px" y="0px"
	 viewBox="0 0 800 800" style="enable-background:new 0 0 800 800;" xml:space="preserve">
<style type="text/css">
	.st0{fill:#252525;}
	.st1{fill:#FFFFFF;}
	.st2{fill:#D0021B;}
</style>
<g>
	<circle class="st0" cx="400" cy="400" r="400"/>
	<path class="st1" d="M280.2,398.4c30.7,0,55.7-24.9,55.7-55.7S311,287,280.2,287s-55.7,24.9-55.7,55.7S249.5,398.4,280.2,398.4z
		 M148.6,509.7c30.7,0,55.7-24.9,55.7-55.7s-24.9-55.7-55.7-55.7S92.9,423.3,92.9,454S117.9,509.7,148.6,509.7z M651.4,509.7
		c30.7,0,55.7-24.9,55.7-55.7s-24.9-55.7-55.7-55.7s-55.7,24.9-55.7,55.7S620.6,509.7,651.4,509.7z"/>
	<path class="st2" d="M468.5,345c-1.8-18.6-2.7-34.1-16.9-45c-18-13.8-38.5-4.8-63.7-13.9c-24.7-6-43.1-28-43.1-54.1
		c0-30.8,25.4-55.7,56.7-55.7c23.2,0,43.1,13.7,51.9,33.3c13.4,25.5,4.7,51.5,21.6,64.6c20,15.5,46.9,4.1,77,18.8
		c9.7,4.4,17.8,11.5,23.6,20.2c5.8,8.7,9.1,19.1,9.1,30.3c0,26.2-18.4,48.2-43.1,54.1c-25.2,9.1-45.6,0.1-63.7,13.9
		c-20.3,15.5-9.4,41.4-26,68.8c-9.4,18-28.5,30.4-50.5,30.4c-31.3,0-56.7-25-56.7-55.7c0-22.4,13.4-41.7,32.7-50.5
		c30.1-14.7,57-3.3,77-18.8C466.1,376.7,468.5,362.9,468.5,345z"/>
</g>
</svg>
