<?xml version="1.0" encoding="utf-8"?>
<!-- Generator: Adobe Illustrator 27.1.0, SVG Export Plug-In . SVG Version: 6.00 Build 0)  -->
<svg version="1.1" id="Layer_1" xmlns="http://www.w3.org/2000/svg" xmlns:xlink="http://www.w3.org/1999/xlink" x="0px" y="0px"
	 viewBox="0 0 800 800" style="enable-background:new 0 0 800 800;" xml:space="preserve">
<style type="text/css">
	.st0{fill:#222222;}
	.st1{fill:#53C1DE;}
	.st2{fill-rule:evenodd;clip-rule:evenodd;fill:#53C1DE;}
</style>
<circle class="st0" cx="400" cy="400" r="400"/>
<path class="st1" d="M467,399.4c0-35.9-30-64.9-67-64.9c-37,0-67,29.1-67,64.9c0,35.9,30,64.9,67,64.9
	C437,464.3,467,435.3,467,399.4z"/>
<path class="st2" d="M617.5,278.8c14.1-55.7,31.9-159.1-30.8-194.1c-62.4-34.9-143.6,32-186.4,72.1
	c-42.7-39.7-126.2-106.3-188.8-71.1c-62.4,35-43.1,136.6-28.7,192.7c-58.2,16-157.9,50.5-157.9,121c0,70.3,99.6,107.8,157.4,123.8
	c-14.5,56.4-32.8,156.6,29.7,191.5c62.9,35.1,146-29.8,189.3-70.4c43.1,40.4,123.5,105.7,185.9,70.7
	c62.6-35.1,46.3-137.1,31.8-193.5c56-16,155.9-52.8,155.9-122.2C775,329.6,674.8,294.8,617.5,278.8z M610.4,491.7
	c-9.5-29.1-22.3-60.1-38-92.1c15-31.2,27.3-61.8,36.5-90.8c42,11.8,134,38.8,134,90.6C743,451.8,654.6,479,610.4,491.7z
	 M571.2,688.1c-46.5,26.1-115.7-36.4-147.6-66.1c21.1-22.4,42.3-48.5,62.9-77.4c36.3-3.1,70.5-8.2,101.6-15.2
	C598.3,569.3,618,661.9,571.2,688.1z M228.1,687.8c-46.6-26-25.3-115.4-14.6-156.9c30.7,6.6,64.7,11.3,101.1,14.2
	c20.7,28.3,42.5,54.3,64.4,77.1C351.9,647.5,274.9,713.9,228.1,687.8z M57,399.4c0-52.5,91.5-79.3,134.4-91.1
	c9.4,29.6,21.7,60.5,36.6,91.8c-15,31.8-27.5,63.2-37,93.1C150.1,481.9,57,452,57,399.4z M227.6,112.6
	c46.7-26.2,119.3,37.7,150.3,66.4c-21.8,22.7-43.3,48.5-63.9,76.7c-35.3,3.2-69,8.3-100.1,15.1C202.3,225.5,180.9,138.8,227.6,112.6
	z M509.5,289.4c23.9,2.9,46.9,6.8,68.4,11.6c-6.5,20.1-14.5,41.1-24,62.6C540.1,338.3,525.3,313.5,509.5,289.4z M400.4,201.2
	c14.8,15.5,29.6,32.9,44.1,51.7c-29.5-1.4-59.1-1.4-88.6,0C370.4,234.2,385.3,216.9,400.4,201.2z M246.4,363.6
	c-9.3-21.5-17.3-42.6-23.8-62.9c21.4-4.6,44.2-8.4,68-11.3C274.7,313.4,259.9,338.2,246.4,363.6z M291.3,511.6
	c-24.6-2.7-47.7-6.3-69.1-10.8c6.6-20.7,14.8-42.3,24.3-64.2C260.1,462.3,275.1,487.4,291.3,511.6z M401.2,599.8
	c-15.2-15.9-30.3-33.5-45.1-52.4c29.7,1.1,59.5,1.1,89.2-0.2C430.7,566.5,415.9,584.1,401.2,599.8z M554.2,435.6
	c10,22.2,18.5,43.6,25.2,64c-21.7,4.8-45.2,8.7-70,11.6C525.4,486.5,540.4,461.3,554.2,435.6z M468.7,514.9
	c-45.4,3.1-91.1,3.1-136.6,0.3c-25.8-36.6-48.8-75-68.7-115c19.7-39.8,42.6-78.2,68.3-114.8c45.5-3.3,91.2-3.3,136.7,0
	c25.5,36.5,48.3,74.8,68.5,114.3C516.9,439.5,494,478,468.7,514.9z M570.8,111.7c46.8,26.1,25.9,119,15.7,159.4
	c-31.1-7-64.9-12.1-100.3-15.4c-20.6-28.5-42-54.3-63.4-76.7C454.2,149.6,524.5,85.8,570.8,111.7z"/>
</svg>
