<?xml version="1.0" encoding="utf-8"?>
<!-- Generator: Adobe Illustrator 27.1.0, SVG Export Plug-In . SVG Version: 6.00 Build 0)  -->
<svg version="1.1" id="Layer_1" xmlns="http://www.w3.org/2000/svg" xmlns:xlink="http://www.w3.org/1999/xlink" x="0px" y="0px"
	 viewBox="0 0 800 800" style="enable-background:new 0 0 800 800;" xml:space="preserve">
<style type="text/css">
	.st0{fill:#222222;}
	.st1{fill:#53C1DE;}
	.st2{fill-rule:evenodd;clip-rule:evenodd;fill:#53C1DE;}
</style>
<circle class="st0" cx="400" cy="400" r="400"/>
<path class="st1" d="M456.4,400c0-30.2-25.2-54.6-56.4-54.6s-56.4,24.5-56.4,54.6c0,30.2,25.2,54.6,56.4,54.6S456.4,430.2,456.4,400
	z"/>
<path class="st2" d="M583,298.1c11.9-46.8,26.8-133.8-25.9-163.3c-52.5-29.4-120.8,26.9-156.8,60.6
	c-35.9-33.4-106.1-89.4-158.8-59.8c-52.5,29.4-36.3,114.9-24.1,162.1c-49,13.5-132.8,42.5-132.8,101.8c0,59.1,83.8,90.7,132.4,104.1
	c-12.2,47.4-27.6,131.7,25,161.1c52.9,29.5,122.8-25.1,159.2-59.2c36.3,34,103.9,88.9,156.4,59.5c52.7-29.5,38.9-115.3,26.7-162.7
	c47.1-13.5,131.1-44.4,131.1-102.8C715.5,340.8,631.2,311.6,583,298.1z M577,477.2c-8-24.5-18.8-50.5-32-77.5
	c12.6-26.2,23-52,30.7-76.4c35.3,9.9,112.7,32.6,112.7,76.2C688.6,443.6,614.2,466.5,577,477.2z M544.1,642.4
	c-39.1,22-97.3-30.6-124.1-55.6c17.7-18.8,35.6-40.8,52.9-65.1c30.5-2.6,59.3-6.9,85.5-12.8C566.9,542.4,583.4,620.3,544.1,642.4z
	 M255.5,642.1c-39.2-21.9-21.3-97.1-12.3-132c25.8,5.6,54.4,9.5,85,11.9c17.4,23.8,35.7,45.7,54.2,64.8
	C359.6,608.2,294.9,664.1,255.5,642.1z M111.6,399.5c0-44.2,77-66.7,113-76.6c7.9,24.9,18.3,50.9,30.8,77.2
	c-12.6,26.7-23.1,53.2-31.1,78.3C189.9,468.9,111.6,443.8,111.6,399.5z M255.1,158.3c39.3-22,100.3,31.7,126.4,55.8
	c-18.3,19.1-36.4,40.8-53.7,64.5c-29.7,2.7-58,7-84.2,12.7C233.8,253.3,215.8,180.3,255.1,158.3z M492.2,307
	c20.1,2.4,39.4,5.7,57.5,9.8c-5.5,16.9-12.2,34.6-20.2,52.7C517.9,348.1,505.5,327.3,492.2,307z M400.4,232.8
	c12.4,13,24.9,27.7,37.1,43.5c-24.8-1.2-49.7-1.2-74.5,0C375.2,260.6,387.7,246,400.4,232.8z M270.9,369.4
	c-7.8-18.1-14.6-35.8-20-52.9c18-3.9,37.2-7.1,57.2-9.5C294.7,327.2,282.2,348.1,270.9,369.4z M308.7,493.9
	c-20.7-2.3-40.1-5.3-58.1-9.1c5.6-17.4,12.4-35.6,20.4-54C282.4,452.4,295,473.5,308.7,493.9z M401.1,568.1
	c-12.8-13.4-25.5-28.2-37.9-44.1c25,0.9,50,0.9,75-0.2C425.9,540.1,413.5,554.9,401.1,568.1z M529.8,430
	c8.4,18.7,15.6,36.7,21.2,53.8c-18.3,4-38,7.3-58.9,9.8C505.6,472.8,518.2,451.6,529.8,430z M457.9,496.7
	c-38.2,2.6-76.6,2.6-114.9,0.3c-21.7-30.8-41-63.1-57.8-96.7c16.6-33.5,35.8-65.8,57.4-96.6c38.3-2.8,76.7-2.8,115,0
	c21.4,30.7,40.6,62.9,57.6,96.1C498.4,433.3,479.1,465.6,457.9,496.7z M543.7,157.6c39.4,22,21.8,100.1,13.2,134.1
	c-26.2-5.9-54.6-10.2-84.4-13c-17.3-24-35.3-45.7-53.3-64.5C445.7,189.4,504.8,135.8,543.7,157.6z"/>
</svg>
