<?xml version="1.0" encoding="utf-8"?><!-- https://www.svgrepo.com/ -->
<svg xmlns="http://www.w3.org/2000/svg" viewBox="0 0 800 800">
  <circle fill="#161D2D" cx="400" cy="400" r="400" />
  <path fill="#38BDF8" d="M240.2,336.1c21.3-85.2,74.6-127.8,159.8-127.8c127.8,0,143.8,95.9,207.7,111.9c42.6,10.7,79.9-5.3,111.9-47.9 C698.3,357.4,645,400,559.8,400C432,400,416,304.1,352.1,288.1C309.4,277.5,272.2,293.4,240.2,336.1z M80.4,527.8 C101.7,442.6,155,400,240.2,400C368,400,384,495.9,447.9,511.9c42.6,10.7,79.9-5.3,111.9-47.9c-21.3,85.2-74.6,127.8-159.8,127.8 c-127.8,0-143.8-95.9-207.7-111.9C149.6,469.2,112.4,485.2,80.4,527.8z" />
</svg>