<?xml version="1.0" encoding="utf-8"?><!-- https://www.svgrepo.com/ -->
<svg xmlns="http://www.w3.org/2000/svg" viewBox="0 0 800 800">
  <path fill="#007ACC" d="M680,800H120C54,800,0,746,0,680V120C0,54,54,0,120,0h560c66,0,120,54,120,120v560C800,746,746,800,680,800z" />
  <path fill="#FFFFFF" d="M175.4,401.4V434h104v296h73.8V434h104v-32c0-18,0-32.6-0.8-33c0-0.6-63.4-0.8-140.4-0.8l-140,0.6v32.8 L175.4,401.4L175.4,401.4z M642.8,368c20.4,4.8,36,14,50,28.6c7.4,8,18.4,22,19.2,25.6c0,1.2-34.6,24.6-55.6,37.6 c-0.8,0.6-4-2.8-7.2-8c-10.4-14.8-21-21.2-37.6-22.4c-24-1.6-40,11-40,32c0,6.4,1.2,10,3.6,15.2c5.4,11,15.4,17.6,46.4,31.2 c57.2,24.6,82,40.8,97,64c17,26,20.8,66.8,9.4,97.4c-12.8,33.4-44,56-88.6,63.4c-14,2.4-46,2-61-0.6c-32-6-62.6-22-81.4-42.6 c-7.4-8-21.6-29.4-20.8-30.8l7.6-4.8l30-17.4l22.6-13.2l5.2,7c6.6,10.4,21.4,24.4,30,29.2c26,13.4,60.8,11.6,78-4 c7.4-6.8,10.6-14,10.6-24c0-9.2-1.4-13.4-6-20.4c-6.4-8.8-19.2-16-55.2-32c-41.4-17.6-59-28.8-75.4-46c-9.4-10.4-18-26.6-22-40 c-3-11.6-4-40-1.2-51.4c8.6-40,38.8-68,82-76c14-2.8,47-1.6,60.8,2L642.8,368L642.8,368z" />
</svg>